<?xml version="1.0" encoding="UTF-8" standalone="no"?>
<!DOCTYPE svg PUBLIC "-//W3C//DTD SVG 1.1//EN"
 "http://www.w3.org/Graphics/SVG/1.1/DTD/svg11.dtd">
<!-- Generated by graphviz version 2.47.3 (20210619.1520)
 -->
<!-- Title: dependencies Pages: 1 -->
<svg width="3537pt" height="391pt"
 viewBox="0.00 0.00 3537.00 390.80" xmlns="http://www.w3.org/2000/svg" xmlns:xlink="http://www.w3.org/1999/xlink">
<g id="graph0" class="graph" transform="scale(1 1) rotate(0) translate(4 386.8)">
<title>dependencies</title>
<polygon fill="white" stroke="transparent" points="-4,4 -4,-386.8 3533,-386.8 3533,4 -4,4"/>
<text text-anchor="middle" x="1764.5" y="-8.2" font-family="sans-serif" font-size="14.00">dependencies</text>
<g id="clust1" class="cluster">
<title>cluster_AppModule</title>
<polygon fill="none" stroke="black" stroke-dasharray="1,5" points="494,-176.8 494,-374.8 867,-374.8 867,-176.8 494,-176.8"/>
</g>
<g id="clust2" class="cluster">
<title>cluster_AppModule_declarations</title>
<polygon fill="none" stroke="black" points="737,-184.8 737,-236.8 859,-236.8 859,-184.8 737,-184.8"/>
</g>
<g id="clust4" class="cluster">
<title>cluster_AppModule_imports</title>
<polygon fill="none" stroke="black" points="502,-184.8 502,-236.8 729,-236.8 729,-184.8 502,-184.8"/>
</g>
<g id="clust6" class="cluster">
<title>cluster_AppModule_bootstrap</title>
<polygon fill="none" stroke="black" points="606,-314.8 606,-366.8 730,-366.8 730,-314.8 606,-314.8"/>
</g>
<g id="clust8" class="cluster">
<title>cluster_AppRoutingModule</title>
<polygon fill="none" stroke="black" stroke-dasharray="1,5" points="1009,-32.8 1009,-244.8 1219,-244.8 1219,-32.8 1009,-32.8"/>
</g>
<g id="clust10" class="cluster">
<title>cluster_AppRoutingModule_imports</title>
<polygon fill="none" stroke="black" points="1017,-40.8 1017,-92.8 1211,-92.8 1211,-40.8 1017,-40.8"/>
</g>
<g id="clust11" class="cluster">
<title>cluster_AppRoutingModule_exports</title>
<polygon fill="none" stroke="black" points="1038,-184.8 1038,-236.8 1156,-236.8 1156,-184.8 1038,-184.8"/>
</g>
<g id="clust14" class="cluster">
<title>cluster_CoreModule</title>
<polygon fill="none" stroke="black" stroke-dasharray="1,5" points="8,-100.8 8,-168.8 1001,-168.8 1001,-100.8 8,-100.8"/>
</g>
<g id="clust15" class="cluster">
<title>cluster_CoreModule_declarations</title>
<polygon fill="none" stroke="black" points="557,-108.8 557,-160.8 993,-160.8 993,-108.8 557,-108.8"/>
</g>
<g id="clust19" class="cluster">
<title>cluster_CoreModule_imports</title>
<polygon fill="none" stroke="black" points="415,-108.8 415,-160.8 549,-160.8 549,-108.8 415,-108.8"/>
</g>
<g id="clust20" class="cluster">
<title>cluster_CoreModule_exports</title>
<polygon fill="none" stroke="black" points="16,-108.8 16,-160.8 407,-160.8 407,-108.8 16,-108.8"/>
</g>
<g id="clust23" class="cluster">
<title>cluster_FrontModule</title>
<polygon fill="none" stroke="black" stroke-dasharray="1,5" points="1227,-32.8 1227,-160.8 1693,-160.8 1693,-32.8 1227,-32.8"/>
</g>
<g id="clust24" class="cluster">
<title>cluster_FrontModule_declarations</title>
<polygon fill="none" stroke="black" points="1235,-40.8 1235,-92.8 1363,-92.8 1363,-40.8 1235,-40.8"/>
</g>
<g id="clust26" class="cluster">
<title>cluster_FrontModule_imports</title>
<polygon fill="none" stroke="black" points="1371,-40.8 1371,-92.8 1685,-92.8 1685,-40.8 1371,-40.8"/>
</g>
<g id="clust30" class="cluster">
<title>cluster_SecondModule</title>
<polygon fill="none" stroke="black" stroke-dasharray="1,5" points="3089,-32.8 3089,-160.8 3521,-160.8 3521,-32.8 3089,-32.8"/>
</g>
<g id="clust31" class="cluster">
<title>cluster_SecondModule_declarations</title>
<polygon fill="none" stroke="black" points="3097,-40.8 3097,-92.8 3513,-92.8 3513,-40.8 3097,-40.8"/>
</g>
<g id="clust39" class="cluster">
<title>cluster_SharedModule</title>
<polygon fill="none" stroke="black" stroke-dasharray="1,5" points="1701,-100.8 1701,-168.8 3081,-168.8 3081,-100.8 1701,-100.8"/>
</g>
<g id="clust40" class="cluster">
<title>cluster_SharedModule_declarations</title>
<polygon fill="none" stroke="black" points="2812,-108.8 2812,-160.8 3073,-160.8 3073,-108.8 2812,-108.8"/>
</g>
<g id="clust43" class="cluster">
<title>cluster_SharedModule_imports</title>
<polygon fill="none" stroke="black" points="2401,-108.8 2401,-160.8 2804,-160.8 2804,-108.8 2401,-108.8"/>
</g>
<g id="clust44" class="cluster">
<title>cluster_SharedModule_exports</title>
<polygon fill="none" stroke="black" points="1709,-108.8 1709,-160.8 2393,-160.8 2393,-108.8 1709,-108.8"/>
</g>
<!-- AppComponent -->
<g id="node1" class="node">
<title>AppComponent</title>
<polygon fill="#ffffb3" stroke="black" points="850.94,-228.8 745.06,-228.8 745.06,-192.8 850.94,-192.8 850.94,-228.8"/>
<text text-anchor="middle" x="798" y="-206.6" font-family="Times,serif" font-size="14.00">AppComponent</text>
</g>
<!-- AppModule -->
<g id="node2" class="node">
<title>AppModule</title>
<polygon fill="#8dd3c7" stroke="black" points="709.66,-293.8 706.66,-297.8 685.66,-297.8 682.66,-293.8 626.34,-293.8 626.34,-257.8 709.66,-257.8 709.66,-293.8"/>
<text text-anchor="middle" x="668" y="-271.6" font-family="Times,serif" font-size="14.00">AppModule</text>
</g>
<!-- AppComponent&#45;&gt;AppModule -->
<g id="edge1" class="edge">
<title>AppComponent&#45;&gt;AppModule</title>
<path fill="none" stroke="black" d="M798,-228.91C798,-248.14 798,-275.8 798,-275.8 798,-275.8 719.85,-275.8 719.85,-275.8"/>
<polygon fill="black" stroke="black" points="719.85,-272.3 709.85,-275.8 719.85,-279.3 719.85,-272.3"/>
</g>
<!-- AppComponent  -->
<g id="node5" class="node">
<title>AppComponent </title>
<polygon fill="#80b1d3" stroke="black" points="722.44,-358.8 613.56,-358.8 613.56,-322.8 722.44,-322.8 722.44,-358.8"/>
<text text-anchor="middle" x="668" y="-336.6" font-family="Times,serif" font-size="14.00">AppComponent </text>
</g>
<!-- AppModule&#45;&gt;AppComponent  -->
<g id="edge4" class="edge">
<title>AppModule&#45;&gt;AppComponent </title>
<path fill="none" stroke="black" stroke-dasharray="1,5" d="M668,-293.91C668,-293.91 668,-312.79 668,-312.79"/>
<polygon fill="black" stroke="black" points="664.5,-312.79 668,-322.79 671.5,-312.79 664.5,-312.79"/>
</g>
<!-- BrowserModule -->
<g id="node3" class="node">
<title>BrowserModule</title>
<polygon fill="#8dd3c7" stroke="black" points="721.47,-228.8 718.47,-232.8 697.47,-232.8 694.47,-228.8 614.53,-228.8 614.53,-192.8 721.47,-192.8 721.47,-228.8"/>
<text text-anchor="middle" x="668" y="-206.6" font-family="Times,serif" font-size="14.00">BrowserModule</text>
</g>
<!-- BrowserModule&#45;&gt;AppModule -->
<g id="edge2" class="edge">
<title>BrowserModule&#45;&gt;AppModule</title>
<path fill="none" stroke="black" d="M668,-228.91C668,-228.91 668,-247.79 668,-247.79"/>
<polygon fill="black" stroke="black" points="664.5,-247.79 668,-257.79 671.5,-247.79 664.5,-247.79"/>
</g>
<!-- CoreModule -->
<g id="node4" class="node">
<title>CoreModule</title>
<polygon fill="#8dd3c7" stroke="black" points="596.26,-228.8 593.26,-232.8 572.26,-232.8 569.26,-228.8 509.74,-228.8 509.74,-192.8 596.26,-192.8 596.26,-228.8"/>
<text text-anchor="middle" x="553" y="-206.6" font-family="Times,serif" font-size="14.00">CoreModule</text>
</g>
<!-- CoreModule&#45;&gt;AppModule -->
<g id="edge3" class="edge">
<title>CoreModule&#45;&gt;AppModule</title>
<path fill="none" stroke="black" d="M553,-228.91C553,-248.14 553,-275.8 553,-275.8 553,-275.8 616.16,-275.8 616.16,-275.8"/>
<polygon fill="black" stroke="black" points="616.16,-279.3 626.16,-275.8 616.16,-272.3 616.16,-279.3"/>
</g>
<!-- HeaderComponent  -->
<g id="node13" class="node">
<title>HeaderComponent </title>
<polygon fill="#fb8072" stroke="black" points="288.74,-152.8 163.26,-152.8 163.26,-116.8 288.74,-116.8 288.74,-152.8"/>
<text text-anchor="middle" x="226" y="-130.6" font-family="Times,serif" font-size="14.00">HeaderComponent </text>
</g>
<!-- CoreModule&#45;&gt;HeaderComponent  -->
<g id="edge12" class="edge">
<title>CoreModule&#45;&gt;HeaderComponent </title>
<path fill="none" stroke="black" stroke-dasharray="5,2" d="M509.58,-210.8C420.63,-210.8 226,-210.8 226,-210.8 226,-210.8 226,-162.81 226,-162.81"/>
<polygon fill="black" stroke="black" points="229.5,-162.81 226,-152.81 222.5,-162.81 229.5,-162.81"/>
</g>
<!-- FooterComponent  -->
<g id="node14" class="node">
<title>FooterComponent </title>
<polygon fill="#fb8072" stroke="black" points="145.88,-152.8 24.12,-152.8 24.12,-116.8 145.88,-116.8 145.88,-152.8"/>
<text text-anchor="middle" x="85" y="-130.6" font-family="Times,serif" font-size="14.00">FooterComponent </text>
</g>
<!-- CoreModule&#45;&gt;FooterComponent  -->
<g id="edge13" class="edge">
<title>CoreModule&#45;&gt;FooterComponent </title>
<path fill="none" stroke="black" stroke-dasharray="5,2" d="M509.39,-219.8C393.21,-219.8 85,-219.8 85,-219.8 85,-219.8 85,-162.83 85,-162.83"/>
<polygon fill="black" stroke="black" points="88.5,-162.83 85,-152.83 81.5,-162.83 88.5,-162.83"/>
</g>
<!-- RouterOutlet  -->
<g id="node15" class="node">
<title>RouterOutlet </title>
<polygon fill="#fb8072" stroke="black" points="399.1,-152.8 306.9,-152.8 306.9,-116.8 399.1,-116.8 399.1,-152.8"/>
<text text-anchor="middle" x="353" y="-130.6" font-family="Times,serif" font-size="14.00">RouterOutlet </text>
</g>
<!-- CoreModule&#45;&gt;RouterOutlet  -->
<g id="edge14" class="edge">
<title>CoreModule&#45;&gt;RouterOutlet </title>
<path fill="none" stroke="black" stroke-dasharray="5,2" d="M509.6,-201.8C450.78,-201.8 353,-201.8 353,-201.8 353,-201.8 353,-163.11 353,-163.11"/>
<polygon fill="black" stroke="black" points="356.5,-163.11 353,-153.11 349.5,-163.11 356.5,-163.11"/>
</g>
<!-- RouterModule.forRoot(args) -->
<g id="node6" class="node">
<title>RouterModule.forRoot(args)</title>
<polygon fill="#8dd3c7" stroke="black" points="1202.84,-84.8 1199.84,-88.8 1178.84,-88.8 1175.84,-84.8 1025.16,-84.8 1025.16,-48.8 1202.84,-48.8 1202.84,-84.8"/>
<text text-anchor="middle" x="1114" y="-62.6" font-family="Times,serif" font-size="14.00">RouterModule.forRoot(args)</text>
</g>
<!-- AppRoutingModule -->
<g id="node7" class="node">
<title>AppRoutingModule</title>
<polygon fill="#8dd3c7" stroke="black" points="1161.27,-152.8 1158.27,-156.8 1137.27,-156.8 1134.27,-152.8 1032.73,-152.8 1032.73,-116.8 1161.27,-116.8 1161.27,-152.8"/>
<text text-anchor="middle" x="1097" y="-130.6" font-family="Times,serif" font-size="14.00">AppRoutingModule</text>
</g>
<!-- RouterModule.forRoot(args)&#45;&gt;AppRoutingModule -->
<g id="edge5" class="edge">
<title>RouterModule.forRoot(args)&#45;&gt;AppRoutingModule</title>
<path fill="none" stroke="black" d="M1097,-85.02C1097,-85.02 1097,-106.53 1097,-106.53"/>
<polygon fill="black" stroke="black" points="1093.5,-106.53 1097,-116.53 1100.5,-106.53 1093.5,-106.53"/>
</g>
<!-- AppRoutingModule&#45;&gt;CoreModule -->
<g id="edge10" class="edge">
<title>AppRoutingModule&#45;&gt;CoreModule</title>
<path fill="none" stroke="black" d="M1039.52,-152.95C1039.52,-166.54 1039.52,-182.8 1039.52,-182.8 1039.52,-182.8 590.12,-182.8 590.12,-182.8 590.12,-182.8 590.12,-183.78 590.12,-183.78"/>
<polygon fill="black" stroke="black" points="586.62,-182.59 590.12,-192.59 593.62,-182.59 586.62,-182.59"/>
</g>
<!-- RouterModule  -->
<g id="node8" class="node">
<title>RouterModule </title>
<polygon fill="#fb8072" stroke="black" points="1147.65,-228.8 1046.35,-228.8 1046.35,-192.8 1147.65,-192.8 1147.65,-228.8"/>
<text text-anchor="middle" x="1097" y="-206.6" font-family="Times,serif" font-size="14.00">RouterModule </text>
</g>
<!-- AppRoutingModule&#45;&gt;RouterModule  -->
<g id="edge6" class="edge">
<title>AppRoutingModule&#45;&gt;RouterModule </title>
<path fill="none" stroke="black" stroke-dasharray="5,2" d="M1097,-152.81C1097,-152.81 1097,-182.65 1097,-182.65"/>
<polygon fill="black" stroke="black" points="1093.5,-182.65 1097,-192.65 1100.5,-182.65 1093.5,-182.65"/>
</g>
<!-- HeaderComponent -->
<g id="node9" class="node">
<title>HeaderComponent</title>
<polygon fill="#ffffb3" stroke="black" points="822.74,-152.8 701.26,-152.8 701.26,-116.8 822.74,-116.8 822.74,-152.8"/>
<text text-anchor="middle" x="762" y="-130.6" font-family="Times,serif" font-size="14.00">HeaderComponent</text>
</g>
<!-- HeaderComponent&#45;&gt;CoreModule -->
<g id="edge7" class="edge">
<title>HeaderComponent&#45;&gt;CoreModule</title>
<path fill="none" stroke="black" d="M711.31,-153.01C711.31,-158.35 711.31,-162.8 711.31,-162.8 711.31,-162.8 577.59,-162.8 577.59,-162.8 577.59,-162.8 577.59,-182.65 577.59,-182.65"/>
<polygon fill="black" stroke="black" points="574.09,-182.65 577.59,-192.65 581.09,-182.65 574.09,-182.65"/>
</g>
<!-- FooterComponent -->
<g id="node10" class="node">
<title>FooterComponent</title>
<polygon fill="#ffffb3" stroke="black" points="682.88,-152.8 565.12,-152.8 565.12,-116.8 682.88,-116.8 682.88,-152.8"/>
<text text-anchor="middle" x="624" y="-130.6" font-family="Times,serif" font-size="14.00">FooterComponent</text>
</g>
<!-- FooterComponent&#45;&gt;CoreModule -->
<g id="edge8" class="edge">
<title>FooterComponent&#45;&gt;CoreModule</title>
<path fill="none" stroke="black" d="M571.32,-152.81C571.32,-152.81 571.32,-182.65 571.32,-182.65"/>
<polygon fill="black" stroke="black" points="567.82,-182.65 571.32,-192.65 574.82,-182.65 567.82,-182.65"/>
</g>
<!-- NavigationComponent -->
<g id="node11" class="node">
<title>NavigationComponent</title>
<polygon fill="#ffffb3" stroke="black" points="984.54,-152.8 841.46,-152.8 841.46,-116.8 984.54,-116.8 984.54,-152.8"/>
<text text-anchor="middle" x="913" y="-130.6" font-family="Times,serif" font-size="14.00">NavigationComponent</text>
</g>
<!-- NavigationComponent&#45;&gt;CoreModule -->
<g id="edge9" class="edge">
<title>NavigationComponent&#45;&gt;CoreModule</title>
<path fill="none" stroke="black" d="M845.97,-152.91C845.97,-162.7 845.97,-172.8 845.97,-172.8 845.97,-172.8 583.85,-172.8 583.85,-172.8 583.85,-172.8 583.85,-182.69 583.85,-182.69"/>
<polygon fill="black" stroke="black" points="580.35,-182.69 583.85,-192.69 587.35,-182.69 580.35,-182.69"/>
</g>
<!-- HttpClientModule -->
<g id="node12" class="node">
<title>HttpClientModule</title>
<polygon fill="#8dd3c7" stroke="black" points="541.16,-152.8 538.16,-156.8 517.16,-156.8 514.16,-152.8 422.84,-152.8 422.84,-116.8 541.16,-116.8 541.16,-152.8"/>
<text text-anchor="middle" x="482" y="-130.6" font-family="Times,serif" font-size="14.00">HttpClientModule</text>
</g>
<!-- HttpClientModule&#45;&gt;CoreModule -->
<g id="edge11" class="edge">
<title>HttpClientModule&#45;&gt;CoreModule</title>
<path fill="none" stroke="black" d="M525.47,-152.81C525.47,-152.81 525.47,-182.65 525.47,-182.65"/>
<polygon fill="black" stroke="black" points="521.97,-182.65 525.47,-192.65 528.97,-182.65 521.97,-182.65"/>
</g>
<!-- FrontComponent -->
<g id="node16" class="node">
<title>FrontComponent</title>
<polygon fill="#ffffb3" stroke="black" points="1354.67,-84.8 1243.33,-84.8 1243.33,-48.8 1354.67,-48.8 1354.67,-84.8"/>
<text text-anchor="middle" x="1299" y="-62.6" font-family="Times,serif" font-size="14.00">FrontComponent</text>
</g>
<!-- FrontModule -->
<g id="node17" class="node">
<title>FrontModule</title>
<polygon fill="#8dd3c7" stroke="black" points="1514.88,-152.8 1511.88,-156.8 1490.88,-156.8 1487.88,-152.8 1425.12,-152.8 1425.12,-116.8 1514.88,-116.8 1514.88,-152.8"/>
<text text-anchor="middle" x="1470" y="-130.6" font-family="Times,serif" font-size="14.00">FrontModule</text>
</g>
<!-- FrontComponent&#45;&gt;FrontModule -->
<g id="edge15" class="edge">
<title>FrontComponent&#45;&gt;FrontModule</title>
<path fill="none" stroke="black" d="M1299,-85.02C1299,-105.17 1299,-134.8 1299,-134.8 1299,-134.8 1415.07,-134.8 1415.07,-134.8"/>
<polygon fill="black" stroke="black" points="1415.07,-138.3 1425.07,-134.8 1415.07,-131.3 1415.07,-138.3"/>
</g>
<!-- SharedModule -->
<g id="node18" class="node">
<title>SharedModule</title>
<polygon fill="#8dd3c7" stroke="black" points="1677.42,-84.8 1674.42,-88.8 1653.42,-88.8 1650.42,-84.8 1578.58,-84.8 1578.58,-48.8 1677.42,-48.8 1677.42,-84.8"/>
<text text-anchor="middle" x="1628" y="-62.6" font-family="Times,serif" font-size="14.00">SharedModule</text>
</g>
<!-- SharedModule&#45;&gt;FrontModule -->
<g id="edge16" class="edge">
<title>SharedModule&#45;&gt;FrontModule</title>
<path fill="none" stroke="black" d="M1611.6,-85.07C1611.6,-103.36 1611.6,-128.8 1611.6,-128.8 1611.6,-128.8 1525.19,-128.8 1525.19,-128.8"/>
<polygon fill="black" stroke="black" points="1525.19,-125.3 1515.19,-128.8 1525.19,-132.3 1525.19,-125.3"/>
</g>
<!-- SecondModule -->
<g id="node23" class="node">
<title>SecondModule</title>
<polygon fill="#8dd3c7" stroke="black" points="3216.26,-152.8 3213.26,-156.8 3192.26,-156.8 3189.26,-152.8 3115.74,-152.8 3115.74,-116.8 3216.26,-116.8 3216.26,-152.8"/>
<text text-anchor="middle" x="3166" y="-130.6" font-family="Times,serif" font-size="14.00">SecondModule</text>
</g>
<!-- SharedModule&#45;&gt;SecondModule -->
<g id="edge21" class="edge">
<title>SharedModule&#45;&gt;SecondModule</title>
<path fill="none" stroke="black" d="M1677.31,-52.8C1931.82,-52.8 3085,-52.8 3085,-52.8 3085,-52.8 3085,-134.8 3085,-134.8 3085,-134.8 3105.62,-134.8 3105.62,-134.8"/>
<polygon fill="black" stroke="black" points="3105.62,-138.3 3115.62,-134.8 3105.62,-131.3 3105.62,-138.3"/>
</g>
<!-- CommonModule  -->
<g id="node29" class="node">
<title>CommonModule </title>
<polygon fill="#fb8072" stroke="black" points="2384.67,-152.8 2269.33,-152.8 2269.33,-116.8 2384.67,-116.8 2384.67,-152.8"/>
<text text-anchor="middle" x="2327" y="-130.6" font-family="Times,serif" font-size="14.00">CommonModule </text>
</g>
<!-- SharedModule&#45;&gt;CommonModule  -->
<g id="edge28" class="edge">
<title>SharedModule&#45;&gt;CommonModule </title>
<path fill="none" stroke="black" stroke-dasharray="5,2" d="M1677.43,-71.8C1836.83,-71.8 2327,-71.8 2327,-71.8 2327,-71.8 2327,-106.58 2327,-106.58"/>
<polygon fill="black" stroke="black" points="2323.5,-106.58 2327,-116.58 2330.5,-106.58 2323.5,-106.58"/>
</g>
<!-- FormsModule  -->
<g id="node30" class="node">
<title>FormsModule </title>
<polygon fill="#fb8072" stroke="black" points="2251.33,-152.8 2152.67,-152.8 2152.67,-116.8 2251.33,-116.8 2251.33,-152.8"/>
<text text-anchor="middle" x="2202" y="-130.6" font-family="Times,serif" font-size="14.00">FormsModule </text>
</g>
<!-- SharedModule&#45;&gt;FormsModule  -->
<g id="edge29" class="edge">
<title>SharedModule&#45;&gt;FormsModule </title>
<path fill="none" stroke="black" stroke-dasharray="5,2" d="M1677.44,-75.8C1816.67,-75.8 2202,-75.8 2202,-75.8 2202,-75.8 2202,-106.78 2202,-106.78"/>
<polygon fill="black" stroke="black" points="2198.5,-106.78 2202,-116.78 2205.5,-106.78 2198.5,-106.78"/>
</g>
<!-- ReactiveFormsModule  -->
<g id="node31" class="node">
<title>ReactiveFormsModule </title>
<polygon fill="#fb8072" stroke="black" points="2134.8,-152.8 1987.2,-152.8 1987.2,-116.8 2134.8,-116.8 2134.8,-152.8"/>
<text text-anchor="middle" x="2061" y="-130.6" font-family="Times,serif" font-size="14.00">ReactiveFormsModule </text>
</g>
<!-- SharedModule&#45;&gt;ReactiveFormsModule  -->
<g id="edge30" class="edge">
<title>SharedModule&#45;&gt;ReactiveFormsModule </title>
<path fill="none" stroke="black" stroke-dasharray="5,2" d="M1677.25,-78.8C1790.74,-78.8 2061,-78.8 2061,-78.8 2061,-78.8 2061,-106.77 2061,-106.77"/>
<polygon fill="black" stroke="black" points="2057.5,-106.77 2061,-116.77 2064.5,-106.77 2057.5,-106.77"/>
</g>
<!-- CardComponent  -->
<g id="node32" class="node">
<title>CardComponent </title>
<polygon fill="#fb8072" stroke="black" points="1969.04,-152.8 1856.96,-152.8 1856.96,-116.8 1969.04,-116.8 1969.04,-152.8"/>
<text text-anchor="middle" x="1913" y="-130.6" font-family="Times,serif" font-size="14.00">CardComponent </text>
</g>
<!-- SharedModule&#45;&gt;CardComponent  -->
<g id="edge31" class="edge">
<title>SharedModule&#45;&gt;CardComponent </title>
<path fill="none" stroke="black" stroke-dasharray="5,2" d="M1677.32,-81.8C1758.89,-81.8 1913,-81.8 1913,-81.8 1913,-81.8 1913,-106.56 1913,-106.56"/>
<polygon fill="black" stroke="black" points="1909.5,-106.56 1913,-116.56 1916.5,-106.56 1909.5,-106.56"/>
</g>
<!-- ToUpperCasePipe  -->
<g id="node33" class="node">
<title>ToUpperCasePipe </title>
<polygon fill="#fb8072" stroke="black" points="1839.13,-152.8 1716.87,-152.8 1716.87,-116.8 1839.13,-116.8 1839.13,-152.8"/>
<text text-anchor="middle" x="1778" y="-130.6" font-family="Times,serif" font-size="14.00">ToUpperCasePipe </text>
</g>
<!-- SharedModule&#45;&gt;ToUpperCasePipe  -->
<g id="edge32" class="edge">
<title>SharedModule&#45;&gt;ToUpperCasePipe </title>
<path fill="none" stroke="black" stroke-dasharray="5,2" d="M1644.4,-85.09C1644.4,-107.01 1644.4,-140.8 1644.4,-140.8 1644.4,-140.8 1706.68,-140.8 1706.68,-140.8"/>
<polygon fill="black" stroke="black" points="1706.68,-144.3 1716.68,-140.8 1706.68,-137.3 1706.68,-144.3"/>
</g>
<!-- RouterModule.forChild(args) -->
<g id="node19" class="node">
<title>RouterModule.forChild(args)</title>
<polygon fill="#8dd3c7" stroke="black" points="1560.73,-84.8 1557.73,-88.8 1536.73,-88.8 1533.73,-84.8 1379.27,-84.8 1379.27,-48.8 1560.73,-48.8 1560.73,-84.8"/>
<text text-anchor="middle" x="1470" y="-62.6" font-family="Times,serif" font-size="14.00">RouterModule.forChild(args)</text>
</g>
<!-- RouterModule.forChild(args)&#45;&gt;FrontModule -->
<g id="edge17" class="edge">
<title>RouterModule.forChild(args)&#45;&gt;FrontModule</title>
<path fill="none" stroke="black" d="M1470,-85.02C1470,-85.02 1470,-106.53 1470,-106.53"/>
<polygon fill="black" stroke="black" points="1466.5,-106.53 1470,-116.53 1473.5,-106.53 1466.5,-106.53"/>
</g>
<!-- RouterModule.forChild(args)&#45;&gt;SecondModule -->
<g id="edge22" class="edge">
<title>RouterModule.forChild(args)&#45;&gt;SecondModule</title>
<path fill="none" stroke="black" d="M1537.78,-84.99C1537.78,-93.08 1537.78,-100.8 1537.78,-100.8 1537.78,-100.8 3149.21,-100.8 3149.21,-100.8 3149.21,-100.8 3149.21,-106.61 3149.21,-106.61"/>
<polygon fill="black" stroke="black" points="3145.71,-106.61 3149.21,-116.61 3152.71,-106.61 3145.71,-106.61"/>
</g>
<!-- SecondComponent -->
<g id="node20" class="node">
<title>SecondComponent</title>
<polygon fill="#ffffb3" stroke="black" points="3227.05,-84.8 3104.95,-84.8 3104.95,-48.8 3227.05,-48.8 3227.05,-84.8"/>
<text text-anchor="middle" x="3166" y="-62.6" font-family="Times,serif" font-size="14.00">SecondComponent</text>
</g>
<!-- SecondComponent&#45;&gt;SecondModule -->
<g id="edge18" class="edge">
<title>SecondComponent&#45;&gt;SecondModule</title>
<path fill="none" stroke="black" d="M3182.79,-85.02C3182.79,-85.02 3182.79,-106.53 3182.79,-106.53"/>
<polygon fill="black" stroke="black" points="3179.29,-106.53 3182.79,-116.53 3186.29,-106.53 3179.29,-106.53"/>
</g>
<!-- ThirdComponent -->
<g id="node21" class="node">
<title>ThirdComponent</title>
<polygon fill="#ffffb3" stroke="black" points="3505.44,-84.8 3392.56,-84.8 3392.56,-48.8 3505.44,-48.8 3505.44,-84.8"/>
<text text-anchor="middle" x="3449" y="-62.6" font-family="Times,serif" font-size="14.00">ThirdComponent</text>
</g>
<!-- ThirdComponent&#45;&gt;SecondModule -->
<g id="edge19" class="edge">
<title>ThirdComponent&#45;&gt;SecondModule</title>
<path fill="none" stroke="black" d="M3449,-85.09C3449,-107.01 3449,-140.8 3449,-140.8 3449,-140.8 3226.27,-140.8 3226.27,-140.8"/>
<polygon fill="black" stroke="black" points="3226.27,-137.3 3216.27,-140.8 3226.27,-144.3 3226.27,-137.3"/>
</g>
<!-- TaskListComponent -->
<g id="node22" class="node">
<title>TaskListComponent</title>
<polygon fill="#ffffb3" stroke="black" points="3375.32,-84.8 3244.68,-84.8 3244.68,-48.8 3375.32,-48.8 3375.32,-84.8"/>
<text text-anchor="middle" x="3310" y="-62.6" font-family="Times,serif" font-size="14.00">TaskListComponent</text>
</g>
<!-- TaskListComponent&#45;&gt;SecondModule -->
<g id="edge20" class="edge">
<title>TaskListComponent&#45;&gt;SecondModule</title>
<path fill="none" stroke="black" d="M3310,-85.07C3310,-103.36 3310,-128.8 3310,-128.8 3310,-128.8 3226.36,-128.8 3226.36,-128.8"/>
<polygon fill="black" stroke="black" points="3226.36,-125.3 3216.36,-128.8 3226.36,-132.3 3226.36,-125.3"/>
</g>
<!-- CardComponent -->
<g id="node24" class="node">
<title>CardComponent</title>
<polygon fill="#ffffb3" stroke="black" points="3065.05,-152.8 2956.95,-152.8 2956.95,-116.8 3065.05,-116.8 3065.05,-152.8"/>
<text text-anchor="middle" x="3011" y="-130.6" font-family="Times,serif" font-size="14.00">CardComponent</text>
</g>
<!-- CardComponent&#45;&gt;SharedModule -->
<g id="edge23" class="edge">
<title>CardComponent&#45;&gt;SharedModule</title>
<path fill="none" stroke="black" d="M3011,-116.48C3011,-93.14 3011,-55.8 3011,-55.8 3011,-55.8 1687.22,-55.8 1687.22,-55.8"/>
<polygon fill="black" stroke="black" points="1687.22,-52.3 1677.22,-55.8 1687.22,-59.3 1687.22,-52.3"/>
</g>
<!-- ToUpperCasePipe -->
<g id="node25" class="node">
<title>ToUpperCasePipe</title>
<polygon fill="#ffffb3" stroke="black" points="2938.13,-152.8 2819.87,-152.8 2819.87,-116.8 2938.13,-116.8 2938.13,-152.8"/>
<text text-anchor="middle" x="2879" y="-130.6" font-family="Times,serif" font-size="14.00">ToUpperCasePipe</text>
</g>
<!-- ToUpperCasePipe&#45;&gt;SharedModule -->
<g id="edge24" class="edge">
<title>ToUpperCasePipe&#45;&gt;SharedModule</title>
<path fill="none" stroke="black" d="M2879,-116.79C2879,-94.31 2879,-58.8 2879,-58.8 2879,-58.8 1687.43,-58.8 1687.43,-58.8"/>
<polygon fill="black" stroke="black" points="1687.43,-55.3 1677.43,-58.8 1687.43,-62.3 1687.43,-55.3"/>
</g>
<!-- CommonModule -->
<g id="node26" class="node">
<title>CommonModule</title>
<polygon fill="#8dd3c7" stroke="black" points="2633.67,-152.8 2630.67,-156.8 2609.67,-156.8 2606.67,-152.8 2522.33,-152.8 2522.33,-116.8 2633.67,-116.8 2633.67,-152.8"/>
<text text-anchor="middle" x="2578" y="-130.6" font-family="Times,serif" font-size="14.00">CommonModule</text>
</g>
<!-- CommonModule&#45;&gt;SharedModule -->
<g id="edge25" class="edge">
<title>CommonModule&#45;&gt;SharedModule</title>
<path fill="none" stroke="black" d="M2578,-116.67C2578,-96.23 2578,-65.8 2578,-65.8 2578,-65.8 1687.41,-65.8 1687.41,-65.8"/>
<polygon fill="black" stroke="black" points="1687.41,-62.3 1677.41,-65.8 1687.41,-69.3 1687.41,-62.3"/>
</g>
<!-- FormsModule -->
<g id="node27" class="node">
<title>FormsModule</title>
<polygon fill="#8dd3c7" stroke="black" points="2504.83,-152.8 2501.83,-156.8 2480.83,-156.8 2477.83,-152.8 2409.17,-152.8 2409.17,-116.8 2504.83,-116.8 2504.83,-152.8"/>
<text text-anchor="middle" x="2457" y="-130.6" font-family="Times,serif" font-size="14.00">FormsModule</text>
</g>
<!-- FormsModule&#45;&gt;SharedModule -->
<g id="edge26" class="edge">
<title>FormsModule&#45;&gt;SharedModule</title>
<path fill="none" stroke="black" d="M2457,-116.77C2457,-97.22 2457,-68.8 2457,-68.8 2457,-68.8 1687.38,-68.8 1687.38,-68.8"/>
<polygon fill="black" stroke="black" points="1687.38,-65.3 1677.38,-68.8 1687.38,-72.3 1687.38,-65.3"/>
</g>
<!-- ReactiveFormsModule -->
<g id="node28" class="node">
<title>ReactiveFormsModule</title>
<polygon fill="#8dd3c7" stroke="black" points="2796.3,-152.8 2793.3,-156.8 2772.3,-156.8 2769.3,-152.8 2651.7,-152.8 2651.7,-116.8 2796.3,-116.8 2796.3,-152.8"/>
<text text-anchor="middle" x="2724" y="-130.6" font-family="Times,serif" font-size="14.00">ReactiveFormsModule</text>
</g>
<!-- ReactiveFormsModule&#45;&gt;SharedModule -->
<g id="edge27" class="edge">
<title>ReactiveFormsModule&#45;&gt;SharedModule</title>
<path fill="none" stroke="black" d="M2724,-116.63C2724,-95.3 2724,-62.8 2724,-62.8 2724,-62.8 1687.22,-62.8 1687.22,-62.8"/>
<polygon fill="black" stroke="black" points="1687.22,-59.3 1677.22,-62.8 1687.22,-66.3 1687.22,-59.3"/>
</g>
</g>
</svg>
